<?xml version="1.0" encoding="us-ascii" standalone="no"?><svg xmlns="http://www.w3.org/2000/svg" xmlns:xlink="http://www.w3.org/1999/xlink" contentStyleType="text/css" height="812px" preserveAspectRatio="none" style="width:839px;height:812px;background:#FFFFFF;" version="1.1" viewBox="0 0 839 812" width="839px" zoomAndPan="magnify"><defs/><g><!--class Service--><g id="elem_Service"><rect codeLine="10" fill="#FFFFFF" height="56.2969" id="Service" rx="2.5" ry="2.5" style="stroke:#A9A9A9;stroke-width:0.5;" width="132" x="17.8738" y="435.34"/><ellipse cx="55.3738" cy="451.34" fill="#FFFFFF" rx="11" ry="11" style="stroke:#181818;stroke-width:1.0;"/><path d="M58.3426,456.9806 Q57.7644,457.2775 57.1238,457.4181 Q56.4832,457.5744 55.7801,457.5744 Q53.2801,457.5744 51.9519,455.9338 Q50.6394,454.2775 50.6394,451.1525 Q50.6394,448.0275 51.9519,446.3713 Q53.2801,444.715 55.7801,444.715 Q56.4832,444.715 57.1238,444.8713 Q57.7801,445.0275 58.3426,445.3244 L58.3426,448.0431 Q57.7176,447.465 57.1238,447.1994 Q56.5301,446.9181 55.9051,446.9181 Q54.5613,446.9181 53.8738,447.9963 Q53.1863,449.0588 53.1863,451.1525 Q53.1863,453.2463 53.8738,454.3244 Q54.5613,455.3869 55.9051,455.3869 Q56.5301,455.3869 57.1238,455.1213 Q57.7176,454.84 58.3426,454.2619 L58.3426,456.9806 Z " fill="#000000"/><text fill="#000000" font-family="sans-serif" font-size="14" lengthAdjust="spacing" textLength="50" x="74.3738" y="456.1867">Service</text><line style="stroke:#A9A9A9;stroke-width:0.5;" x1="18.8738" x2="148.8738" y1="467.34" y2="467.34"/><text fill="#000000" font-family="sans-serif" font-size="14" lengthAdjust="spacing" textLength="120" x="23.8738" y="484.3351">String targetPoint</text></g><!--class Leaf--><g id="elem_Leaf"><rect codeLine="13" fill="#FFFFFF" height="56.2969" id="Leaf" rx="2.5" ry="2.5" style="stroke:#A9A9A9;stroke-width:0.5;" width="82" x="354.8738" y="435.34"/><ellipse cx="379.7738" cy="451.34" fill="#FFFFFF" rx="11" ry="11" style="stroke:#181818;stroke-width:1.0;"/><path d="M382.7426,456.9806 Q382.1644,457.2775 381.5238,457.4181 Q380.8832,457.5744 380.1801,457.5744 Q377.6801,457.5744 376.3519,455.9338 Q375.0394,454.2775 375.0394,451.1525 Q375.0394,448.0275 376.3519,446.3713 Q377.6801,444.715 380.1801,444.715 Q380.8832,444.715 381.5238,444.8713 Q382.1801,445.0275 382.7426,445.3244 L382.7426,448.0431 Q382.1176,447.465 381.5238,447.1994 Q380.9301,446.9181 380.3051,446.9181 Q378.9613,446.9181 378.2738,447.9963 Q377.5863,449.0588 377.5863,451.1525 Q377.5863,453.2463 378.2738,454.3244 Q378.9613,455.3869 380.3051,455.3869 Q380.9301,455.3869 381.5238,455.1213 Q382.1176,454.84 382.7426,454.2619 L382.7426,456.9806 Z " fill="#000000"/><text fill="#000000" font-family="sans-serif" font-size="14" lengthAdjust="spacing" textLength="28" x="395.9738" y="456.1867">Leaf</text><line style="stroke:#A9A9A9;stroke-width:0.5;" x1="355.8738" x2="435.8738" y1="467.34" y2="467.34"/><text fill="#000000" font-family="sans-serif" font-size="14" lengthAdjust="spacing" textLength="70" x="360.8738" y="484.3351">String text</text></g><!--class ServiceAPI--><g id="elem_ServiceAPI"><rect codeLine="16" fill="#FFFFFF" height="32" id="ServiceAPI" rx="2.5" ry="2.5" style="stroke:#A9A9A9;stroke-width:0.5;" width="103" x="84.3738" y="343.34"/><ellipse cx="99.3738" cy="359.34" fill="#FFFFFF" rx="11" ry="11" style="stroke:#181818;stroke-width:1.0;"/><path d="M102.3426,364.9806 Q101.7644,365.2775 101.1238,365.4181 Q100.4832,365.5744 99.7801,365.5744 Q97.2801,365.5744 95.9519,363.9338 Q94.6394,362.2775 94.6394,359.1525 Q94.6394,356.0275 95.9519,354.3713 Q97.2801,352.715 99.7801,352.715 Q100.4832,352.715 101.1238,352.8713 Q101.7801,353.0275 102.3426,353.3244 L102.3426,356.0431 Q101.7176,355.465 101.1238,355.1994 Q100.5301,354.9181 99.9051,354.9181 Q98.5613,354.9181 97.8738,355.9963 Q97.1863,357.0588 97.1863,359.1525 Q97.1863,361.2463 97.8738,362.3244 Q98.5613,363.3869 99.9051,363.3869 Q100.5301,363.3869 101.1238,363.1213 Q101.7176,362.84 102.3426,362.2619 L102.3426,364.9806 Z " fill="#000000"/><text fill="#000000" font-family="sans-serif" font-size="14" lengthAdjust="spacing" textLength="71" x="113.3738" y="364.1867">ServiceAPI</text></g><!--class Page--><g id="elem_Page"><rect codeLine="18" fill="#FFFFFF" height="137.7813" id="Page" rx="2.5" ry="2.5" style="stroke:#A9A9A9;stroke-width:0.5;" width="158" x="538.8738" y="667.34"/><ellipse cx="596.1238" cy="683.34" fill="#FFFFFF" rx="11" ry="11" style="stroke:#181818;stroke-width:1.0;"/><path d="M599.0926,688.9806 Q598.5144,689.2775 597.8738,689.4181 Q597.2332,689.5744 596.5301,689.5744 Q594.0301,689.5744 592.7019,687.9338 Q591.3894,686.2775 591.3894,683.1525 Q591.3894,680.0275 592.7019,678.3713 Q594.0301,676.715 596.5301,676.715 Q597.2332,676.715 597.8738,676.8713 Q598.5301,677.0275 599.0926,677.3244 L599.0926,680.0431 Q598.4676,679.465 597.8738,679.1994 Q597.2801,678.9181 596.6551,678.9181 Q595.3113,678.9181 594.6238,679.9963 Q593.9363,681.0588 593.9363,683.1525 Q593.9363,685.2463 594.6238,686.3244 Q595.3113,687.3869 596.6551,687.3869 Q597.2801,687.3869 597.8738,687.1213 Q598.4676,686.84 599.0926,686.2619 L599.0926,688.9806 Z " fill="#000000"/><text fill="#000000" font-family="sans-serif" font-size="14" lengthAdjust="spacing" textLength="35" x="616.6238" y="688.1867">Page</text><line style="stroke:#A9A9A9;stroke-width:0.5;" x1="539.8738" x2="695.8738" y1="699.34" y2="699.34"/><text fill="#000000" font-family="sans-serif" font-size="14" lengthAdjust="spacing" textLength="117" x="544.8738" y="716.3351">String codeValue</text><text fill="#000000" font-family="sans-serif" font-size="14" lengthAdjust="spacing" textLength="69" x="544.8738" y="732.632">String title</text><text fill="#000000" font-family="sans-serif" font-size="14" lengthAdjust="spacing" textLength="102" x="544.8738" y="748.9289">String shortcut</text><text fill="#000000" font-family="sans-serif" font-size="14" lengthAdjust="spacing" textLength="95" x="544.8738" y="765.2257">String subtitle</text><text fill="#000000" font-family="sans-serif" font-size="14" lengthAdjust="spacing" textLength="122" x="544.8738" y="781.5226">String codePhase</text><text fill="#000000" font-family="sans-serif" font-size="14" lengthAdjust="spacing" textLength="146" x="544.8738" y="797.8195">String realClassName</text></g><!--class ServiceAPIParameter--><g id="elem_ServiceAPIParameter"><rect codeLine="26" fill="#FFFFFF" height="32" id="ServiceAPIParameter" rx="2.5" ry="2.5" style="stroke:#A9A9A9;stroke-width:0.5;" width="174" x="154.8738" y="239.34"/><ellipse cx="169.8738" cy="255.34" fill="#FFFFFF" rx="11" ry="11" style="stroke:#181818;stroke-width:1.0;"/><path d="M172.8426,260.9806 Q172.2644,261.2775 171.6238,261.4181 Q170.9832,261.5744 170.2801,261.5744 Q167.7801,261.5744 166.4519,259.9338 Q165.1394,258.2775 165.1394,255.1525 Q165.1394,252.0275 166.4519,250.3713 Q167.7801,248.715 170.2801,248.715 Q170.9832,248.715 171.6238,248.8713 Q172.2801,249.0275 172.8426,249.3244 L172.8426,252.0431 Q172.2176,251.465 171.6238,251.1994 Q171.0301,250.9181 170.4051,250.9181 Q169.0613,250.9181 168.3738,251.9963 Q167.6863,253.0588 167.6863,255.1525 Q167.6863,257.2463 168.3738,258.3244 Q169.0613,259.3869 170.4051,259.3869 Q171.0301,259.3869 171.6238,259.1213 Q172.2176,258.84 172.8426,258.2619 L172.8426,260.9806 Z " fill="#000000"/><text fill="#000000" font-family="sans-serif" font-size="14" lengthAdjust="spacing" textLength="142" x="183.8738" y="260.1867">ServiceAPIParameter</text></g><!--class OriginedEntity--><g id="elem_OriginedEntity"><rect codeLine="28" fill="#FFFFFF" height="56.2969" id="OriginedEntity" rx="2.5" ry="2.5" style="stroke:#A9A9A9;stroke-width:0.5;" width="128" x="276.8738" y="111.34"/><ellipse cx="291.8738" cy="127.34" fill="#FFFFFF" rx="11" ry="11" style="stroke:#181818;stroke-width:1.0;"/><path d="M294.8426,132.9806 Q294.2644,133.2775 293.6238,133.4181 Q292.9832,133.5744 292.2801,133.5744 Q289.7801,133.5744 288.4519,131.9338 Q287.1394,130.2775 287.1394,127.1525 Q287.1394,124.0275 288.4519,122.3713 Q289.7801,120.715 292.2801,120.715 Q292.9832,120.715 293.6238,120.8713 Q294.2801,121.0275 294.8426,121.3244 L294.8426,124.0431 Q294.2176,123.465 293.6238,123.1994 Q293.0301,122.9181 292.4051,122.9181 Q291.0613,122.9181 290.3738,123.9963 Q289.6863,125.0588 289.6863,127.1525 Q289.6863,129.2463 290.3738,130.3244 Q291.0613,131.3869 292.4051,131.3869 Q293.0301,131.3869 293.6238,131.1213 Q294.2176,130.84 294.8426,130.2619 L294.8426,132.9806 Z " fill="#000000"/><text fill="#000000" font-family="sans-serif" font-size="14" lengthAdjust="spacing" textLength="96" x="305.8738" y="132.1867">OriginedEntity</text><line style="stroke:#A9A9A9;stroke-width:0.5;" x1="277.8738" x2="403.8738" y1="143.34" y2="143.34"/><text fill="#000000" font-family="sans-serif" font-size="14" lengthAdjust="spacing" textLength="83" x="282.8738" y="160.3351">String name</text></g><!--class Container--><g id="elem_Container"><rect codeLine="31" fill="#FFFFFF" height="32" id="Container" rx="2.5" ry="2.5" style="stroke:#A9A9A9;stroke-width:0.5;" width="99" x="472.3738" y="447.34"/><ellipse cx="487.3738" cy="463.34" fill="#FFFFFF" rx="11" ry="11" style="stroke:#181818;stroke-width:1.0;"/><path d="M490.3426,468.9806 Q489.7644,469.2775 489.1238,469.4181 Q488.4832,469.5744 487.7801,469.5744 Q485.2801,469.5744 483.9519,467.9338 Q482.6394,466.2775 482.6394,463.1525 Q482.6394,460.0275 483.9519,458.3713 Q485.2801,456.715 487.7801,456.715 Q488.4832,456.715 489.1238,456.8713 Q489.7801,457.0275 490.3426,457.3244 L490.3426,460.0431 Q489.7176,459.465 489.1238,459.1994 Q488.5301,458.9181 487.9051,458.9181 Q486.5613,458.9181 485.8738,459.9963 Q485.1863,461.0588 485.1863,463.1525 Q485.1863,465.2463 485.8738,466.3244 Q486.5613,467.3869 487.9051,467.3869 Q488.5301,467.3869 489.1238,467.1213 Q489.7176,466.84 490.3426,466.2619 L490.3426,468.9806 Z " fill="#000000"/><text fill="#000000" font-family="sans-serif" font-size="14" lengthAdjust="spacing" textLength="67" x="501.3738" y="468.1867">Container</text></g><!--class ActionService--><g id="elem_ActionService"><rect codeLine="33" fill="#FFFFFF" height="32" id="ActionService" rx="2.5" ry="2.5" style="stroke:#A9A9A9;stroke-width:0.5;" width="125" x="597.3738" y="343.34"/><ellipse cx="612.3738" cy="359.34" fill="#FFFFFF" rx="11" ry="11" style="stroke:#181818;stroke-width:1.0;"/><path d="M615.3426,364.9806 Q614.7644,365.2775 614.1238,365.4181 Q613.4832,365.5744 612.7801,365.5744 Q610.2801,365.5744 608.9519,363.9338 Q607.6394,362.2775 607.6394,359.1525 Q607.6394,356.0275 608.9519,354.3713 Q610.2801,352.715 612.7801,352.715 Q613.4832,352.715 614.1238,352.8713 Q614.7801,353.0275 615.3426,353.3244 L615.3426,356.0431 Q614.7176,355.465 614.1238,355.1994 Q613.5301,354.9181 612.9051,354.9181 Q611.5613,354.9181 610.8738,355.9963 Q610.1863,357.0588 610.1863,359.1525 Q610.1863,361.2463 610.8738,362.3244 Q611.5613,363.3869 612.9051,363.3869 Q613.5301,363.3869 614.1238,363.1213 Q614.7176,362.84 615.3426,362.2619 L615.3426,364.9806 Z " fill="#000000"/><text fill="#000000" font-family="sans-serif" font-size="14" lengthAdjust="spacing" textLength="93" x="626.3738" y="364.1867">ActionService</text></g><!--class ActionAppel--><g id="elem_ActionAppel"><rect codeLine="35" fill="#FFFFFF" height="32" id="ActionAppel" rx="2.5" ry="2.5" style="stroke:#A9A9A9;stroke-width:0.5;" width="114" x="718.8738" y="563.34"/><ellipse cx="733.8738" cy="579.34" fill="#FFFFFF" rx="11" ry="11" style="stroke:#181818;stroke-width:1.0;"/><path d="M736.8426,584.9806 Q736.2644,585.2775 735.6238,585.4181 Q734.9832,585.5744 734.2801,585.5744 Q731.7801,585.5744 730.4519,583.9338 Q729.1394,582.2775 729.1394,579.1525 Q729.1394,576.0275 730.4519,574.3713 Q731.7801,572.715 734.2801,572.715 Q734.9832,572.715 735.6238,572.8713 Q736.2801,573.0275 736.8426,573.3244 L736.8426,576.0431 Q736.2176,575.465 735.6238,575.1994 Q735.0301,574.9181 734.4051,574.9181 Q733.0613,574.9181 732.3738,575.9963 Q731.6863,577.0588 731.6863,579.1525 Q731.6863,581.2463 732.3738,582.3244 Q733.0613,583.3869 734.4051,583.3869 Q735.0301,583.3869 735.6238,583.1213 Q736.2176,582.84 736.8426,582.2619 L736.8426,584.9806 Z " fill="#000000"/><text fill="#000000" font-family="sans-serif" font-size="14" lengthAdjust="spacing" textLength="82" x="747.8738" y="584.1867">ActionAppel</text></g><!--class CSNModel--><g id="elem_CSNModel"><rect codeLine="37" fill="#FFFFFF" height="32" id="CSNModel" rx="2.5" ry="2.5" style="stroke:#A9A9A9;stroke-width:0.5;" width="103" x="599.3738" y="123.34"/><ellipse cx="614.3738" cy="139.34" fill="#FFFFFF" rx="11" ry="11" style="stroke:#181818;stroke-width:1.0;"/><path d="M617.3426,144.9806 Q616.7644,145.2775 616.1238,145.4181 Q615.4832,145.5744 614.7801,145.5744 Q612.2801,145.5744 610.9519,143.9338 Q609.6394,142.2775 609.6394,139.1525 Q609.6394,136.0275 610.9519,134.3713 Q612.2801,132.715 614.7801,132.715 Q615.4832,132.715 616.1238,132.8713 Q616.7801,133.0275 617.3426,133.3244 L617.3426,136.0431 Q616.7176,135.465 616.1238,135.1994 Q615.5301,134.9181 614.9051,134.9181 Q613.5613,134.9181 612.8738,135.9963 Q612.1863,137.0588 612.1863,139.1525 Q612.1863,141.2463 612.8738,142.3244 Q613.5613,143.3869 614.9051,143.3869 Q615.5301,143.3869 616.1238,143.1213 Q616.7176,142.84 617.3426,142.2619 L617.3426,144.9806 Z " fill="#000000"/><text fill="#000000" font-family="sans-serif" font-size="14" lengthAdjust="spacing" textLength="71" x="628.3738" y="144.1867">CSNModel</text></g><!--class Attribute--><g id="elem_Attribute"><rect codeLine="39" fill="#FFFFFF" height="56.2969" id="Attribute" rx="2.5" ry="2.5" style="stroke:#A9A9A9;stroke-width:0.5;" width="152" x="363.8738" y="227.34"/><ellipse cx="406.3238" cy="243.34" fill="#FFFFFF" rx="11" ry="11" style="stroke:#181818;stroke-width:1.0;"/><path d="M409.2926,248.9806 Q408.7144,249.2775 408.0738,249.4181 Q407.4332,249.5744 406.7301,249.5744 Q404.2301,249.5744 402.9019,247.9338 Q401.5894,246.2775 401.5894,243.1525 Q401.5894,240.0275 402.9019,238.3713 Q404.2301,236.715 406.7301,236.715 Q407.4332,236.715 408.0738,236.8713 Q408.7301,237.0275 409.2926,237.3244 L409.2926,240.0431 Q408.6676,239.465 408.0738,239.1994 Q407.4801,238.9181 406.8551,238.9181 Q405.5113,238.9181 404.8238,239.9963 Q404.1363,241.0588 404.1363,243.1525 Q404.1363,245.2463 404.8238,246.3244 Q405.5113,247.3869 406.8551,247.3869 Q407.4801,247.3869 408.0738,247.1213 Q408.6676,246.84 409.2926,246.2619 L409.2926,248.9806 Z " fill="#000000"/><text fill="#000000" font-family="sans-serif" font-size="14" lengthAdjust="spacing" textLength="59" x="426.4238" y="248.1867">Attribute</text><line style="stroke:#A9A9A9;stroke-width:0.5;" x1="364.8738" x2="514.8738" y1="259.34" y2="259.34"/><text fill="#000000" font-family="sans-serif" font-size="14" lengthAdjust="spacing" textLength="140" x="369.8738" y="276.3351">String attributeValue</text></g><!--class Action--><g id="elem_Action"><rect codeLine="42" fill="#FFFFFF" height="32" id="Action" rx="2.5" ry="2.5" style="stroke:#A9A9A9;stroke-width:0.5;" width="75" x="622.3738" y="239.34"/><ellipse cx="637.3738" cy="255.34" fill="#FFFFFF" rx="11" ry="11" style="stroke:#181818;stroke-width:1.0;"/><path d="M640.3426,260.9806 Q639.7644,261.2775 639.1238,261.4181 Q638.4832,261.5744 637.7801,261.5744 Q635.2801,261.5744 633.9519,259.9338 Q632.6394,258.2775 632.6394,255.1525 Q632.6394,252.0275 633.9519,250.3713 Q635.2801,248.715 637.7801,248.715 Q638.4832,248.715 639.1238,248.8713 Q639.7801,249.0275 640.3426,249.3244 L640.3426,252.0431 Q639.7176,251.465 639.1238,251.1994 Q638.5301,250.9181 637.9051,250.9181 Q636.5613,250.9181 635.8738,251.9963 Q635.1863,253.0588 635.1863,255.1525 Q635.1863,257.2463 635.8738,258.3244 Q636.5613,259.3869 637.9051,259.3869 Q638.5301,259.3869 639.1238,259.1213 Q639.7176,258.84 640.3426,258.2619 L640.3426,260.9806 Z " fill="#000000"/><text fill="#000000" font-family="sans-serif" font-size="14" lengthAdjust="spacing" textLength="43" x="651.3738" y="260.1867">Action</text></g><!--class Widget--><g id="elem_Widget"><rect codeLine="44" fill="#FFFFFF" height="32" id="Widget" rx="2.5" ry="2.5" style="stroke:#A9A9A9;stroke-width:0.5;" width="80" x="481.8738" y="343.34"/><ellipse cx="496.8738" cy="359.34" fill="#FFFFFF" rx="11" ry="11" style="stroke:#181818;stroke-width:1.0;"/><path d="M499.8426,364.9806 Q499.2644,365.2775 498.6238,365.4181 Q497.9832,365.5744 497.2801,365.5744 Q494.7801,365.5744 493.4519,363.9338 Q492.1394,362.2775 492.1394,359.1525 Q492.1394,356.0275 493.4519,354.3713 Q494.7801,352.715 497.2801,352.715 Q497.9832,352.715 498.6238,352.8713 Q499.2801,353.0275 499.8426,353.3244 L499.8426,356.0431 Q499.2176,355.465 498.6238,355.1994 Q498.0301,354.9181 497.4051,354.9181 Q496.0613,354.9181 495.3738,355.9963 Q494.6863,357.0588 494.6863,359.1525 Q494.6863,361.2463 495.3738,362.3244 Q496.0613,363.3869 497.4051,363.3869 Q498.0301,363.3869 498.6238,363.1213 Q499.2176,362.84 499.8426,362.2619 L499.8426,364.9806 Z " fill="#000000"/><text fill="#000000" font-family="sans-serif" font-size="14" lengthAdjust="spacing" textLength="48" x="510.8738" y="364.1867">Widget</text></g><!--class BusinessPage--><g id="elem_BusinessPage"><rect codeLine="46" fill="#FFFFFF" height="56.2969" id="BusinessPage" rx="2.5" ry="2.5" style="stroke:#A9A9A9;stroke-width:0.5;" width="131" x="552.3738" y="551.34"/><ellipse cx="567.3738" cy="567.34" fill="#FFFFFF" rx="11" ry="11" style="stroke:#181818;stroke-width:1.0;"/><path d="M570.3426,572.9806 Q569.7644,573.2775 569.1238,573.4181 Q568.4832,573.5744 567.7801,573.5744 Q565.2801,573.5744 563.9519,571.9338 Q562.6394,570.2775 562.6394,567.1525 Q562.6394,564.0275 563.9519,562.3713 Q565.2801,560.715 567.7801,560.715 Q568.4832,560.715 569.1238,560.8713 Q569.7801,561.0275 570.3426,561.3244 L570.3426,564.0431 Q569.7176,563.465 569.1238,563.1994 Q568.5301,562.9181 567.9051,562.9181 Q566.5613,562.9181 565.8738,563.9963 Q565.1863,565.0588 565.1863,567.1525 Q565.1863,569.2463 565.8738,570.3244 Q566.5613,571.3869 567.9051,571.3869 Q568.5301,571.3869 569.1238,571.1213 Q569.7176,570.84 570.3426,570.2619 L570.3426,572.9806 Z " fill="#000000"/><text fill="#000000" font-family="sans-serif" font-size="14" lengthAdjust="spacing" textLength="99" x="581.3738" y="572.1867">BusinessPage</text><line style="stroke:#A9A9A9;stroke-width:0.5;" x1="553.3738" x2="682.3738" y1="583.34" y2="583.34"/><text fill="#000000" font-family="sans-serif" font-size="14" lengthAdjust="spacing" textLength="69" x="558.3738" y="600.3351">String title</text></g><!--class Entity--><g id="elem_Entity"><rect codeLine="78" fill="#FFFFE0" height="40.2656" id="Entity" rx="2.5" ry="2.5" style="stroke:#D3D3D3;stroke-width:0.5;" width="94" x="183.8738" y="11.34"/><ellipse cx="198.8738" cy="31.4728" fill="#FFFFE0" rx="11" ry="11" style="stroke:#181818;stroke-width:1.0;"/><path d="M201.8426,37.1134 Q201.2644,37.4103 200.6238,37.5509 Q199.9832,37.7072 199.2801,37.7072 Q196.7801,37.7072 195.4519,36.0666 Q194.1394,34.4103 194.1394,31.2853 Q194.1394,28.1603 195.4519,26.5041 Q196.7801,24.8478 199.2801,24.8478 Q199.9832,24.8478 200.6238,25.0041 Q201.2801,25.1603 201.8426,25.4572 L201.8426,28.1759 Q201.2176,27.5978 200.6238,27.3322 Q200.0301,27.0509 199.4051,27.0509 Q198.0613,27.0509 197.3738,28.1291 Q196.6863,29.1916 196.6863,31.2853 Q196.6863,33.3791 197.3738,34.4572 Q198.0613,35.5197 199.4051,35.5197 Q200.0301,35.5197 200.6238,35.2541 Q201.2176,34.9728 201.8426,34.3947 L201.8426,37.1134 Z " fill="#000000"/><text fill="#000000" font-family="sans-serif" font-size="12" font-style="italic" lengthAdjust="spacing" textLength="66" x="210.8738" y="27.4787">&#171;External&#187;</text><text fill="#000000" font-family="sans-serif" font-size="14" lengthAdjust="spacing" textLength="38" x="224.8738" y="43.3039">Entity</text></g><!--class TEntityMetaLevelDependency--><g id="elem_TEntityMetaLevelDependency"><rect codeLine="79" fill="#FFFFE0" height="40.2656" id="TEntityMetaLevelDependency" rx="2.5" ry="2.5" style="stroke:#D3D3D3;stroke-width:0.5;" width="237" x="331.3738" y="11.34"/><ellipse cx="346.3738" cy="31.4728" fill="#FFFFE0" rx="11" ry="11" style="stroke:#181818;stroke-width:1.0;"/><path d="M347.2176,38.2228 L344.7644,38.2228 L344.7644,27.9728 L341.6238,27.9728 L341.6238,25.8322 L350.3582,25.8322 L350.3582,27.9728 L347.2176,27.9728 L347.2176,38.2228 Z " fill="#000000"/><text fill="#000000" font-family="sans-serif" font-size="12" font-style="italic" lengthAdjust="spacing" textLength="66" x="429.8738" y="27.4787">&#171;External&#187;</text><text fill="#000000" font-family="sans-serif" font-size="14" lengthAdjust="spacing" textLength="205" x="360.3738" y="43.3039">TEntityMetaLevelDependency</text></g><!--class Model--><g id="elem_Model"><rect codeLine="80" fill="#FFFFE0" height="40.2656" id="Model" rx="2.5" ry="2.5" style="stroke:#D3D3D3;stroke-width:0.5;" width="94" x="603.8738" y="11.34"/><ellipse cx="618.8738" cy="31.4728" fill="#FFFFE0" rx="11" ry="11" style="stroke:#181818;stroke-width:1.0;"/><path d="M621.8426,37.1134 Q621.2644,37.4103 620.6238,37.5509 Q619.9832,37.7072 619.2801,37.7072 Q616.7801,37.7072 615.4519,36.0666 Q614.1394,34.4103 614.1394,31.2853 Q614.1394,28.1603 615.4519,26.5041 Q616.7801,24.8478 619.2801,24.8478 Q619.9832,24.8478 620.6238,25.0041 Q621.2801,25.1603 621.8426,25.4572 L621.8426,28.1759 Q621.2176,27.5978 620.6238,27.3322 Q620.0301,27.0509 619.4051,27.0509 Q618.0613,27.0509 617.3738,28.1291 Q616.6863,29.1916 616.6863,31.2853 Q616.6863,33.3791 617.3738,34.4572 Q618.0613,35.5197 619.4051,35.5197 Q620.0301,35.5197 620.6238,35.2541 Q621.2176,34.9728 621.8426,34.3947 L621.8426,37.1134 Z " fill="#000000"/><text fill="#000000" font-family="sans-serif" font-size="12" font-style="italic" lengthAdjust="spacing" textLength="66" x="630.8738" y="27.4787">&#171;External&#187;</text><text fill="#000000" font-family="sans-serif" font-size="14" lengthAdjust="spacing" textLength="42" x="642.8738" y="43.3039">Model</text></g><!--reverse link OriginedEntity to Service--><g id="link_OriginedEntity_Service"><path codeLine="52" d="M257.2138,155.54 C210.2538,167.88 153.5238,189.64 114.8738,227.34 C65.3738,275.63 60.2138,306.51 66.8738,375.34 C68.8338,395.56 73.2938,418.06 77.1538,435.11 " fill="none" id="OriginedEntity-backto-Service" style="stroke:#000000;stroke-width:1.0;"/><polygon fill="none" points="255.5738,148.74,276.6538,150.81,258.8738,162.34,255.5738,148.74" style="stroke:#000000;stroke-width:1.0;"/></g><!--reverse link Widget to Leaf--><g id="link_Widget_Leaf"><path codeLine="53" d="M487.6838,388.02 C469.5138,402.72 447.2738,420.73 429.2338,435.33 " fill="none" id="Widget-backto-Leaf" style="stroke:#000000;stroke-width:1.0;"/><polygon fill="none" points="483.3338,382.53,503.2838,375.39,492.1438,393.42,483.3338,382.53" style="stroke:#000000;stroke-width:1.0;"/></g><!--reverse link OriginedEntity to ServiceAPI--><g id="link_OriginedEntity_ServiceAPI"><path codeLine="54" d="M257.0238,153.7 C213.4038,165.35 163.7138,187.05 136.8738,227.34 C113.1738,262.93 123.7438,316.89 131.0338,343.05 " fill="none" id="OriginedEntity-backto-ServiceAPI" style="stroke:#000000;stroke-width:1.0;"/><polygon fill="none" points="255.4538,146.87,276.5338,149.02,258.7138,160.49,255.4538,146.87" style="stroke:#000000;stroke-width:1.0;"/></g><!--reverse link Container to Page--><g id="link_Container_Page"><path codeLine="55" d="M520.4338,499.49 C520.2938,529.05 522.6638,572.03 534.8738,607.34 C542.0138,627.99 553.1738,648.62 565.0238,667.11 " fill="none" id="Container-backto-Page" style="stroke:#000000;stroke-width:1.0;"/><polygon fill="none" points="513.4338,499.27,520.9138,479.45,527.4238,499.61,513.4338,499.27" style="stroke:#000000;stroke-width:1.0;"/></g><!--reverse link OriginedEntity to ServiceAPIParameter--><g id="link_OriginedEntity_ServiceAPIParameter"><path codeLine="56" d="M304.2838,182.47 C287.1038,202.26 267.6838,224.62 255.1438,239.07 " fill="none" id="OriginedEntity-backto-ServiceAPIParameter" style="stroke:#000000;stroke-width:1.0;"/><polygon fill="none" points="299.0138,177.87,317.4138,167.36,309.5838,187.05,299.0138,177.87" style="stroke:#000000;stroke-width:1.0;"/></g><!--reverse link Entity to OriginedEntity--><g id="link_Entity_OriginedEntity"><path codeLine="57" d="M265.5538,65.76 C280.7938,80.44 298.4438,97.45 312.8238,111.31 " fill="none" id="Entity-backto-OriginedEntity" style="stroke:#000000;stroke-width:1.0;"/><polygon fill="none" points="260.3438,70.45,250.7938,51.54,270.0538,60.37,260.3438,70.45" style="stroke:#000000;stroke-width:1.0;"/></g><!--reverse link TEntityMetaLevelDependency to OriginedEntity--><g id="link_TEntityMetaLevelDependency_OriginedEntity"><path codeLine="58" d="M415.5138,65.76 C400.4138,80.44 382.9238,97.45 368.6638,111.31 " fill="none" id="TEntityMetaLevelDependency-backto-OriginedEntity" style="stroke:#000000;stroke-width:1.0;stroke-dasharray:7.0,7.0;"/><polygon fill="none" points="410.9138,60.46,430.1338,51.54,420.6738,70.5,410.9138,60.46" style="stroke:#000000;stroke-width:1.0;"/></g><!--reverse link Widget to Container--><g id="link_Widget_Container"><path codeLine="59" d="M509.7038,395.23 C508.3838,412.96 509.3138,433.57 512.5038,447.23 " fill="none" id="Widget-backto-Container" style="stroke:#000000;stroke-width:1.0;"/><polygon fill="none" points="502.7838,394.21,512.5138,375.39,516.6438,396.17,502.7838,394.21" style="stroke:#000000;stroke-width:1.0;"/></g><!--link Widget to Container--><g id="link_Widget_Container"><path codeLine="75" d="M531.7838,375.39 C535.6138,390.83 536.3838,415.22 534.0838,434.25 " fill="none" id="Widget-to-Container" style="stroke:#000000;stroke-width:1.0;"/><polygon fill="none" points="531.8038,447.23,536.7793,442.0104,533.8749,435.4101,528.8994,440.6297,531.8038,447.23" style="stroke:#000000;stroke-width:1.0;"/><text fill="#000000" font-family="sans-serif" font-size="13" lengthAdjust="spacing" textLength="55" x="470.2946" y="395.2798">*widgets</text><text fill="#000000" font-family="sans-serif" font-size="13" lengthAdjust="spacing" textLength="103" x="552.9204" y="436.2038">widgetContainer</text></g><!--reverse link Action to ActionService--><g id="link_Action_ActionService"><path codeLine="60" d="M659.8738,291.53 C659.8738,309.18 659.8738,329.65 659.8738,343.23 " fill="none" id="Action-backto-ActionService" style="stroke:#000000;stroke-width:1.0;"/><polygon fill="none" points="652.8738,291.39,659.8738,271.39,666.8738,291.39,652.8738,291.39" style="stroke:#000000;stroke-width:1.0;"/></g><!--reverse link Action to ActionAppel--><g id="link_Action_ActionAppel"><path codeLine="61" d="M694.3338,284.88 C710.7838,300.43 729.1638,321.03 739.8738,343.34 C776.5038,419.61 777.5538,524.42 776.5238,563.16 " fill="none" id="Action-backto-ActionAppel" style="stroke:#000000;stroke-width:1.0;"/><polygon fill="none" points="689.4638,289.91,679.1938,271.38,698.7838,279.46,689.4638,289.91" style="stroke:#000000;stroke-width:1.0;"/></g><!--reverse link Model to CSNModel--><g id="link_Model_CSNModel"><path codeLine="62" d="M650.8738,71.89 C650.8738,89.74 650.8738,109.78 650.8738,123.14 " fill="none" id="Model-backto-CSNModel" style="stroke:#000000;stroke-width:1.0;"/><polygon fill="none" points="643.8738,71.78,650.8738,51.78,657.8738,71.78,643.8738,71.78" style="stroke:#000000;stroke-width:1.0;"/></g><!--reverse link OriginedEntity to Attribute--><g id="link_OriginedEntity_Attribute"><path codeLine="63" d="M377.6738,182.71 C390.5738,197.57 404.7038,213.84 416.2338,227.12 " fill="none" id="OriginedEntity-backto-Attribute" style="stroke:#000000;stroke-width:1.0;"/><polygon fill="none" points="372.1638,187.05,364.3338,167.36,382.7338,177.87,372.1638,187.05" style="stroke:#000000;stroke-width:1.0;"/></g><!--reverse link OriginedEntity to Action--><g id="link_OriginedEntity_Action"><path codeLine="64" d="M423.9738,167.32 C473.8138,183.87 538.3038,205.93 594.8738,227.34 C604.5938,231.02 615.0138,235.23 624.6138,239.21 " fill="none" id="OriginedEntity-backto-Action" style="stroke:#000000;stroke-width:1.0;"/><polygon fill="none" points="421.7438,173.95,404.9538,161.03,426.1438,160.66,421.7438,173.95" style="stroke:#000000;stroke-width:1.0;"/></g><!--reverse link OriginedEntity to Widget--><g id="link_OriginedEntity_Widget"><path codeLine="65" d="M424.4038,156.26 C464.4338,168.54 508.8138,190.02 532.8738,227.34 C556.1238,263.4 539.2938,317.15 528.7138,343.15 " fill="none" id="OriginedEntity-backto-Widget" style="stroke:#000000;stroke-width:1.0;"/><polygon fill="none" points="422.3138,162.94,404.9038,150.86,426.0438,149.45,422.3138,162.94" style="stroke:#000000;stroke-width:1.0;"/></g><!--reverse link Container to BusinessPage--><g id="link_Container_BusinessPage"><path codeLine="66" d="M547.8038,495.13 C562.4838,512.56 580.6738,534.17 594.8438,550.99 " fill="none" id="Container-backto-BusinessPage" style="stroke:#000000;stroke-width:1.0;"/><polygon fill="none" points="542.3538,499.52,534.8238,479.71,553.0638,490.5,542.3538,499.52" style="stroke:#000000;stroke-width:1.0;"/></g><!--reverse link Entity to Entity--><g id="link_Entity_Entity"><path codeLine="67" d="M296.5838,12.99 C306.3038,15.86 312.8738,21.98 312.8738,31.34 C312.8738,46.32 296.0538,52.99 276.4138,51.35 " fill="none" id="Entity-backto-Entity" style="stroke:#000000;stroke-width:1.0;"/><polygon fill="none" points="295.7638,19.95,276.4138,11.33,296.9138,6,295.7638,19.95" style="stroke:#000000;stroke-width:1.0;"/></g><!--link Service to Service--><g id="link_Service_Service"><path codeLine="69" d="M149.9338,443.88 C169.5838,444.46 184.8738,450.95 184.8738,463.34 C184.8738,472.83 175.9138,478.85 162.8938,481.42 " fill="none" id="Service-to-Service" style="stroke:#000000;stroke-width:1.0;"/><polygon fill="none" points="149.9338,482.8,156.3259,486.1378,161.8655,481.5211,155.4734,478.1833,149.9338,482.8" style="stroke:#000000;stroke-width:1.0;"/><text fill="#000000" font-family="sans-serif" font-size="13" lengthAdjust="spacing" textLength="90" x="161.8833" y="439.0455">*childServices</text><text fill="#000000" font-family="sans-serif" font-size="13" lengthAdjust="spacing" textLength="89" x="157.7076" y="480.7021">parentService</text></g><!--link ServiceAPI to Service--><g id="link_ServiceAPI_Service"><path codeLine="70" d="M128.2038,375.39 C121.7438,388.05 112.2238,406.74 103.6538,423.54 " fill="none" id="ServiceAPI-to-Service" style="stroke:#000000;stroke-width:1.0;"/><polygon fill="none" points="97.6438,435.33,103.9345,431.8047,103.0998,424.6421,96.8092,428.1674,97.6438,435.33" style="stroke:#000000;stroke-width:1.0;"/><text fill="#000000" font-family="sans-serif" font-size="13" lengthAdjust="spacing" textLength="53" x="63.2225" y="395.2798">*actions</text><text fill="#000000" font-family="sans-serif" font-size="13" lengthAdjust="spacing" textLength="85" x="6" y="424.1662">serviceOwner</text></g><!--link ServiceAPIParameter to ServiceAPI--><g id="link_ServiceAPIParameter_ServiceAPI"><path codeLine="71" d="M226.2338,271.39 C209.0938,287.89 181.3338,314.6 161.1038,334.06 " fill="none" id="ServiceAPIParameter-to-ServiceAPI" style="stroke:#000000;stroke-width:1.0;"/><polygon fill="none" points="151.5838,343.23,158.68,341.948,160.2259,334.9045,153.1297,336.1866,151.5838,343.23" style="stroke:#000000;stroke-width:1.0;"/><text fill="#000000" font-family="sans-serif" font-size="13" lengthAdjust="spacing" textLength="82" x="124.8093" y="291.2798">*parameters</text><text fill="#000000" font-family="sans-serif" font-size="13" lengthAdjust="spacing" textLength="105" x="33.9373" y="332.2038">serviceAPIOwner</text></g><!--link ActionAppel to Page--><g id="link_ActionAppel_Page"><path codeLine="72" d="M760.4338,595.48 C745.2938,610.34 720.9938,634.18 696.7138,658 " fill="none" id="ActionAppel-to-Page" style="stroke:#000000;stroke-width:1.0;"/><polygon fill="none" points="687.4238,667.11,694.5077,665.7617,695.9878,658.7041,688.9038,660.0524,687.4238,667.11" style="stroke:#000000;stroke-width:1.0;"/><text fill="#000000" font-family="sans-serif" font-size="13" lengthAdjust="spacing" textLength="41" x="706.8662" y="615.3996">*caller</text><text fill="#000000" font-family="sans-serif" font-size="13" lengthAdjust="spacing" textLength="21" x="672.5133" y="656.2822">call</text></g><!--link Attribute to Widget--><g id="link_Attribute_Widget"><path codeLine="73" d="M461.6338,283.41 C474.0038,298.79 489.3938,317.94 501.5238,333.03 " fill="none" id="Attribute-to-Widget" style="stroke:#000000;stroke-width:1.0;"/><polygon fill="none" points="509.6938,343.18,509.0519,335.9975,502.175,333.8276,502.8169,341.0101,509.6938,343.18" style="stroke:#000000;stroke-width:1.0;"/><text fill="#000000" font-family="sans-serif" font-size="13" lengthAdjust="spacing" textLength="69" x="389.2252" y="303.6835">*attributes</text><text fill="#000000" font-family="sans-serif" font-size="13" lengthAdjust="spacing" textLength="41" x="457.4601" y="332.1366">widget</text></g><!--link Action to Widget--><g id="link_Action_Widget"><path codeLine="74" d="M639.5138,271.39 C616.6838,288.26 579.4038,315.82 552.9338,335.39 " fill="none" id="Action-to-Widget" style="stroke:#000000;stroke-width:1.0;"/><polygon fill="none" points="542.3238,343.23,549.5264,342.8806,551.9742,336.0977,544.7716,336.447,542.3238,343.23" style="stroke:#000000;stroke-width:1.0;"/><text fill="#000000" font-family="sans-serif" font-size="13" lengthAdjust="spacing" textLength="53" x="570.3289" y="291.2798">*actions</text><text fill="#000000" font-family="sans-serif" font-size="13" lengthAdjust="spacing" textLength="34" x="555.1972" y="332.2038">caller</text></g><!--link BusinessPage to Page--><g id="link_BusinessPage_Page"><path codeLine="76" d="M617.8738,607.69 C617.8738,620.79 617.8738,637.24 617.8738,653.93 " fill="none" id="BusinessPage-to-Page" style="stroke:#000000;stroke-width:1.0;"/><polygon fill="none" points="617.8738,667.31,621.8738,661.31,617.8738,655.31,613.8738,661.31,617.8738,667.31" style="stroke:#000000;stroke-width:1.0;"/><text fill="#000000" font-family="sans-serif" font-size="13" lengthAdjust="spacing" textLength="95" x="512.0457" y="627.5811">*businessPage</text><text fill="#000000" font-family="sans-serif" font-size="13" lengthAdjust="spacing" textLength="94" x="519.0269" y="656.5029">pageContainer</text></g><!--SRC=[ZLLTRziW57tdLo3lfPsM_eAeKffrqwIqjPHgqnwnVMUZ4B00Duss_VVnOHpiU0bvYRYSS-_XtWDkQ0KOzgq-uZti2v0AgHtbBP5aZqj6bCA_4SOFfDpLKdIyMWic93uqL8E9hwGK1nygcC5Og90LI1-hYDnzbUHudc6vV7pN83bXz_TuG-j6_mJ6n66Su1pbilr5o4lRWdoZ9U3b4j-iFpbHjzX0FtnnFoTzgoNbDTP4rg1pGRasV4_V0FcLn8Nt4wclkSg_NQ06S4xg97MbgE0xOHr4HQbcqL8rGkgoqr6aAoOOcoLlY8f24WXRModFP0ypPyZjeC7qEE4mBvBMb4Fro4tTOygnU5nqBRWcXfzIQbLgAlZryOxngxO5be1URv-VJAjIe2jjJb9qEccA983zACVY4ehze9NnQ0BmeLEcaKgbsilx9B2lpi_Sh-ci_omMmJKeoBGnUuKkWOt5K3HuksD5Nw4ChaJn_fY3Nlt_4sYoWJTWdw45NW4lBVpkRWgFLG-AK9YDZOvCDxFZx8LwvxWqlOzcJpCuPtxNPPpTyaAdNOj7FkfAVpmKBak6FvODPLM_LXbUB0JEp8iENFV1R9Xbz9eP8d6g0aNvlPU34J77EBqTXjg6nOHjSEC4rX7nTRLw2MCMuNXsaNcJd2wVrHOMeS31zIaB_UhdTNQAaBo7zJOmCCyVPnkQdaKU6TqsGooYzT3T6YAkKp-zRUQoHH-wszENhGTUylFovlKoERnd_o-2_W40]--></g></svg>